<svg width="672" height="602" xmlns="http://www.w3.org/2000/svg" xmlns:xlink="http://www.w3.org/1999/xlink"><defs><linearGradient x1="55.629%" y1="4.218%" x2="43.133%" y2="100%" id="linearGradient-3"><stop stop-color="#2FBEFF" offset="0%"/><stop stop-color="#1B70B6" offset="100%"/></linearGradient><path id="path-1" d="M0 .939h672v600H0z"/></defs><g id="Design" stroke="none" stroke-width="1" fill="none" fill-rule="evenodd"><g id="blob-shape-copy" transform="translate(0 .06)"><mask id="mask-2" fill="#fff"><use xlink:href="#path-1"/></mask><g mask="url(#mask-2)" fill="url(#linearGradient-3)" fill-rule="nonzero" id="Path_22"><path d="M569.31 109.294c29.374 37.558 41.348 83.127 37.902 122.58-3.446 39.54-22.225 72.963-42.21 103.974-20.071 30.926-153.832 186.484-159.489 206.283-5.657 19.799 105.52 362.603-132.494 168.805-205.985-167.72 87.567-341.837 66.548-379.653-20.932-37.903-55.13-67.364-66.674-108.54-11.457-41.262-.258-94.153 32.39-131.195 32.648-37.041 86.745-58.146 137.225-53.839 50.48 4.307 97.34 33.94 126.801 71.585z" transform="rotate(-60 293.795 403.545)"/></g></g></g></svg>