<svg width="1082" height="500" xmlns="http://www.w3.org/2000/svg"><defs><linearGradient x1="68.124%" y1="31.02%" x2="27.887%" y2="70.729%" id="linearGradient-1"><stop stop-color="#2FBEFF" offset="0%"/><stop stop-color="#1B70B6" offset="100%"/></linearGradient></defs><g id="Design" stroke="none" stroke-width="1" fill="none" fill-rule="evenodd"><g id="blob-shape-(1)-copy" transform="matrix(-1 0 0 1 1103.797 -226.264)" fill="url(#linearGradient-1)" fill-rule="nonzero"><path d="M1098.287 164.852c132.523 96.987-122.472 103.85-106.854 155.279 15.472 51.285 53.007 87.528 66.756 133.368 13.753 45.699 3.582 101.137-29.367 133.942-32.949 32.805-88.678 42.981-130.938 19.198-42.405-23.78-71.483-81.51-121.91-86.956-50.572-5.443-454.182 294.18-515.638 293.178C198.88 811.856 51.03 417.277 73.952 376.163c22.92-41.114 268.332-19.756 316.898-53.85 48.706-33.951 127.546 97.32 259.824 57.735 148.563-52.233-97.167-121.863 79.58-201.48 44.838-20.202 254.845-96.552 368.033-13.716z" id="Path_23" transform="rotate(-164.991 604.084 469.98)"/></g></g></svg>