<svg width="641" height="577" xmlns="http://www.w3.org/2000/svg"><defs><linearGradient x1="55.629%" y1="4.218%" x2="43.133%" y2="100%" id="linearGradient-1"><stop stop-color="#2FBEFF" offset="0%"/><stop stop-color="#1B70B6" offset="100%"/></linearGradient></defs><g id="Design" stroke="none" stroke-width="1" fill="none" fill-rule="evenodd"><g id="blob-shape-copy" transform="scale(1 -1) rotate(75 812.44 -3.828)" fill="url(#linearGradient-1)" fill-rule="nonzero"><path d="M569.31 109.294c29.374 37.558 41.348 83.127 37.902 122.58-3.446 39.54-22.225 72.963-42.21 103.974-20.071 30.926-153.832 186.484-159.489 206.283-5.657 19.799 105.52 362.603-132.494 168.805-205.985-167.72 87.567-341.837 66.548-379.653-20.932-37.903-55.13-67.364-66.674-108.54-11.457-41.262-.258-94.153 32.39-131.195 32.648-37.041 86.745-58.146 137.225-53.839 50.48 4.307 97.34 33.94 126.801 71.585z" id="Path_22" transform="rotate(45 403.565 403.619)"/></g></g></svg>