<svg xmlns="http://www.w3.org/2000/svg" width="1081" height="500" viewBox="0 0 900 500"><defs><linearGradient id="srm6a" x1="775.12" x2="346.58" y1="-69.98" y2="586.86" gradientUnits="userSpaceOnUse"><stop offset="0" stop-color="#2fbeff"/><stop offset="1" stop-color="#1b70b6"/></linearGradient></defs><path fill="url(#srm6a)" d="M1076.287-61.147C1208.81 35.839 953.814 42.703 969.433 94.13c15.472 51.285 53.007 87.528 66.756 133.369 13.753 45.698 3.582 101.137-29.367 133.942-32.95 32.805-88.678 42.98-130.938 19.197-42.405-23.78-71.483-81.51-121.91-86.955-50.572-5.444-454.182 294.179-515.638 293.175-61.457-1.003-209.305-395.581-186.384-436.695 22.92-41.114 268.331-19.757 316.898-53.85 48.706-33.952 127.546 97.319 259.824 57.734 148.563-52.232-97.168-121.862 79.58-201.479 44.838-20.202 254.845-96.552 368.033-13.716z" transform="rotate(-164.991 541 250)"/></svg>