<?xml version="1.0" encoding="UTF-8"?>
<svg width="20px" height="28px" viewBox="0 0 20 28" version="1.1" xmlns="http://www.w3.org/2000/svg" xmlns:xlink="http://www.w3.org/1999/xlink">
    <title>icon-location</title>
    <g id="Design" stroke="none" stroke-width="1" fill="none" fill-rule="evenodd">
        <g id="XL" transform="translate(-857.000000, -7165.000000)" fill="#2FBEFF" fill-rule="nonzero">
            <g id="Group-33" transform="translate(0.000000, 6964.000000)">
                <g id="Group-7-Copy" transform="translate(855.000000, 50.000000)">
                    <g id="icon-location" transform="translate(2.000000, 151.000000)">
                        <path d="M9.6,0 C4.30656,0 0,4.30656 0,9.6 C0,11.38848 0.495413333,13.1338667 1.43301333,14.6481067 L9.05354667,26.92848 C9.19952,27.1637333 9.45669333,27.3066667 9.73328,27.3066667 C9.73541333,27.3066667 9.73749333,27.3066667 9.73962667,27.3066667 C10.0186133,27.30448 10.27632,27.15712 10.4196267,26.91776 L17.84592,14.5184 C18.7317867,13.03616 19.2,11.3354133 19.2,9.6 C19.2,4.30656 14.89344,0 9.6,0 Z M16.4728533,13.69696 L9.72117333,24.96992 L2.79290667,13.80512 C2.01248,12.5447467 1.58933333,11.0906667 1.58933333,9.6 C1.58933333,5.1888 5.1888,1.58933333 9.6,1.58933333 C14.0112,1.58933333 17.6053333,5.1888 17.6053333,9.6 C17.6053333,11.0464533 17.21008,12.46336 16.4728533,13.69696 Z" id="Shape"></path>
                        <path d="M9.6,4.8 C6.95328,4.8 4.8,6.95328 4.8,9.6 C4.8,12.2298133 6.91824,14.4 9.6,14.4 C12.3148267,14.4 14.4,12.2009067 14.4,9.6 C14.4,6.95328 12.24672,4.8 9.6,4.8 Z M9.6,12.8106667 C7.82629333,12.8106667 6.38933333,11.3689067 6.38933333,9.6 C6.38933333,7.83552 7.83552,6.38933333 9.6,6.38933333 C11.36448,6.38933333 12.8053333,7.83552 12.8053333,9.6 C12.8053333,11.3430933 11.4018133,12.8106667 9.6,12.8106667 Z" id="Shape"></path>
                    </g>
                </g>
            </g>
        </g>
    </g>
</svg>