<svg xmlns="http://www.w3.org/2000/svg" width="229" height="76"><defs><linearGradient id="brcnb" x1="37.47" x2="37.47" y1="23.37" y2="59.63" gradientUnits="userSpaceOnUse"><stop offset="0" stop-color="#aaf6ff" stop-opacity=".3"/><stop offset=".28" stop-color="#a2ebfb" stop-opacity=".31"/><stop offset=".5" stop-color="#8ccbf0" stop-opacity=".32"/><stop offset=".69" stop-color="#6794dd" stop-opacity=".34"/><stop offset=".87" stop-color="#3347c2" stop-opacity=".37"/><stop offset="1" stop-color="#0300aa" stop-opacity=".4"/></linearGradient><linearGradient id="brcnc" x1="37.47" x2="37.47" y1="23.37" y2="31.23" gradientUnits="userSpaceOnUse"><stop offset="0" stop-color="#aaf6ff" stop-opacity=".3"/><stop offset=".28" stop-color="#a2ebfb" stop-opacity=".31"/><stop offset=".5" stop-color="#8ccbf0" stop-opacity=".32"/><stop offset=".69" stop-color="#6794dd" stop-opacity=".34"/><stop offset=".87" stop-color="#3347c2" stop-opacity=".37"/><stop offset="1" stop-color="#0300aa" stop-opacity=".4"/></linearGradient><linearGradient id="brcnd" x1="21.18" x2="31.54" y1="85.28" y2="13.26" gradientUnits="userSpaceOnUse"><stop offset="0" stop-color="#aaf6ff" stop-opacity=".3"/><stop offset=".28" stop-color="#a2ebfb" stop-opacity=".31"/><stop offset=".5" stop-color="#8ccbf0" stop-opacity=".32"/><stop offset=".69" stop-color="#6794dd" stop-opacity=".34"/><stop offset=".87" stop-color="#3347c2" stop-opacity=".37"/><stop offset="1" stop-color="#0300aa" stop-opacity=".4"/></linearGradient><linearGradient id="brcne" x1="54.51" x2="42.63" y1="7.9" y2="90.63" gradientUnits="userSpaceOnUse"><stop offset="0" stop-color="#aaf6ff" stop-opacity=".3"/><stop offset=".28" stop-color="#a2ebfb" stop-opacity=".31"/><stop offset=".5" stop-color="#8ccbf0" stop-opacity=".32"/><stop offset=".69" stop-color="#6794dd" stop-opacity=".34"/><stop offset=".87" stop-color="#3347c2" stop-opacity=".37"/><stop offset="1" stop-color="#0300aa" stop-opacity=".4"/></linearGradient><linearGradient id="brcnf" x1="42.64" x2="25.17" y1="-3.81" y2="60.58" gradientUnits="userSpaceOnUse"><stop offset="0" stop-color="#aaf6ff" stop-opacity=".3"/><stop offset=".28" stop-color="#a2ebfb" stop-opacity=".31"/><stop offset=".5" stop-color="#8ccbf0" stop-opacity=".32"/><stop offset=".69" stop-color="#6794dd" stop-opacity=".34"/><stop offset=".87" stop-color="#3347c2" stop-opacity=".37"/><stop offset="1" stop-color="#0300aa" stop-opacity=".4"/></linearGradient><linearGradient id="brcng" x1="42.8" x2="23.43" y1="37.11" y2="47.36" gradientUnits="userSpaceOnUse"><stop offset="0" stop-color="#aaf6ff" stop-opacity=".3"/><stop offset=".28" stop-color="#a2ebfb" stop-opacity=".31"/><stop offset=".5" stop-color="#8ccbf0" stop-opacity=".32"/><stop offset=".69" stop-color="#6794dd" stop-opacity=".34"/><stop offset=".87" stop-color="#3347c2" stop-opacity=".37"/><stop offset="1" stop-color="#0300aa" stop-opacity=".4"/></linearGradient><linearGradient id="brcnh" x1="18.59" x2="64.94" y1="54.52" y2="29.98" gradientUnits="userSpaceOnUse"><stop offset="0" stop-color="#aaf6ff" stop-opacity=".3"/><stop offset=".28" stop-color="#a2ebfb" stop-opacity=".31"/><stop offset=".5" stop-color="#8ccbf0" stop-opacity=".32"/><stop offset=".69" stop-color="#6794dd" stop-opacity=".34"/><stop offset=".87" stop-color="#3347c2" stop-opacity=".37"/><stop offset="1" stop-color="#0300aa" stop-opacity=".4"/></linearGradient><radialGradient id="brcna" cx="38" cy="38" r="38.73" gradientUnits="userSpaceOnUse"><stop offset="0" stop-color="#0300aa" stop-opacity=".4"/><stop offset=".39" stop-color="#5478d3" stop-opacity=".2"/><stop offset=".77" stop-color="#92d3f3" stop-opacity=".06"/><stop offset="1" stop-color="#aaf6ff" stop-opacity="0"/></radialGradient></defs><path fill="url(#brcna)" d="M38 76.73c21.39 0 38.73-17.34 38.73-38.73C76.73 16.61 59.39-.73 38-.73 16.61-.73-.73 16.61-.73 38c0 21.39 17.34 38.73 38.73 38.73z" opacity=".4"/><path fill="url(#brcnb)" d="M53.382 23.37H21.543l-4.773 7.851 20.663 28.407L58.176 31.22z"/><path fill="url(#brcnc)" d="M58.176 31.221H16.77l4.773-7.851h31.84z"/><path fill="url(#brcnd)" d="M37.468 31.221H16.77l4.773-7.851 15.93 7.851z"/><path fill="url(#brcne)" d="M45.375 31.221h12.777L53.38 23.37l-15.93 7.851z"/><path fill="url(#brcnf)" d="M58.176 31.23H16.77l20.663 28.406z"/><path fill="url(#brcng)" d="M29.528 31.23H16.77l20.663 28.406z"/><path fill="url(#brcnh)" d="M45.375 31.23h12.758L37.47 59.639z"/><path fill="#fff" d="M140.442 51.398a4.305 4.305 0 01-1.418-3.38 4.43 4.43 0 011.34-3.062 4.847 4.847 0 013.567-1.181c.585.004 1.17.052 1.748.145.387.07.777.119 1.168.147.106 0 .12.063.12.127 0 .105-.04.227-.066.65-.013.372-.013 1.062-.027 1.22-.013.183-.042.254-.108.254-.093 0-.105-.078-.105-.254a1.567 1.567 0 00-.516-1.154 3.947 3.947 0 00-2.35-.68 3.474 3.474 0 00-2.539.775 3.556 3.556 0 00-1.059 2.902 4.145 4.145 0 004.122 4.135 2.74 2.74 0 002.032-.545c.235-.269.387-.6.435-.954.027-.127.069-.198.149-.198.08 0 .066.093.066.185-.06.497-.15.989-.267 1.475a.432.432 0 01-.303.33 6.35 6.35 0 01-2.095.264 5.576 5.576 0 01-3.894-1.201zm10.604-2.636c-.027 0-.053-.026-.027-.08l.993-2.926c.068-.19.08-.19.149 0l1.046 2.927c.014.042.014.079-.04.079zm2.29.464a.127.127 0 01.106.069l1.05 2.667c.073.198 0 .264-.054.288a.114.114 0 00-.093.095c0 .064.076.079.33.095.89.022 1.872.022 2.017.022.145 0 .198-.022.198-.09 0-.069-.066-.093-.159-.093a1.27 1.27 0 01-.452-.066c-.185-.069-.571-.24-1.007-1.289-.702-1.653-2.507-6.28-2.692-6.719-.145-.372-.198-.425-.264-.425-.093 0-.133.071-.28.452l-2.65 6.984c-.226.555-.453.993-1.023 1.047-.088.01-.176.014-.264.012-.106 0-.159.024-.159.093s.066.09.21.09c.554 0 1.126-.037 1.27-.037.145 0 .756.037 1.047.037.093 0 .2-.037.2-.09s-.034-.093-.16-.093h-.093c-.291 0-.436-.105-.436-.345.03-.323.105-.64.225-.941l.584-1.66a.142.142 0 01.127-.105zm6.26-.021c0 1.524.053 2.286.276 2.503.215.19.48.266 1.397.266.584 0 1.115 0 1.406-.372a1.69 1.69 0 00.254-.657c.013-.108.042-.162.108-.162s.079.04.079.172a8.55 8.55 0 01-.16 1.193c-.082.265-.068.333-.701.333-.905 0-1.898-.068-3.225-.068-.435 0-.702.036-1.165.036-.135 0-.215-.021-.215-.105 0-.037.04-.076.149-.076.106.004.213-.005.317-.03.225-.036.304-.303.343-.62.065-.811.083-1.625.053-2.438v-1.99c0-1.749 0-2.042-.026-2.4-.027-.356-.079-.612-.529-.664a3.22 3.22 0 00-.332-.01c-.093 0-.145-.043-.145-.096 0-.053.066-.09.198-.09.558 0 1.352.037 1.38.037.185 0 .995-.037 1.365-.037.127 0 .172.037.172.09s-.066.095-.145.095a3.55 3.55 0 00-.357.027c-.372.053-.452.264-.478.65-.027.357-.013.65-.013 2.399zm6.956 0c0 1.524.053 2.286.28 2.503.211.19.477.266 1.39.266.584 0 1.115 0 1.405-.372.13-.199.217-.423.254-.657.013-.108.04-.162.106-.162s.079.04.079.172c-.025.4-.078.8-.16 1.193-.078.265-.065.333-.701.333-.902 0-1.898-.068-3.225-.068-.435 0-.702.036-1.165.036-.127 0-.212-.021-.212-.105 0-.037.04-.076.144-.076.107.004.214-.005.318-.03.225-.036.306-.303.347-.62.064-.811.081-1.625.053-2.438v-1.99c0-1.749 0-2.042-.027-2.4-.026-.356-.078-.612-.53-.664a3.193 3.193 0 00-.333-.01c-.093 0-.145-.043-.145-.096 0-.053.066-.09.2-.09.556 0 1.35.037 1.377.037.188 0 .996-.037 1.366-.037.127 0 .172.037.172.09s-.066.095-.145.095a3.55 3.55 0 00-.357.027c-.372.053-.452.264-.478.65-.027.357-.013.65-.013 2.399zm7.588-1.59c.29 0 .33.04.33.105 0 .106-.186.145-.439.198-.901.162-2.031.33-2.623.518-.17.063-.343.116-.518.16-.066 0-.066-.08-.053-.186l.171-.69c.027-.095.083-.105.267-.105zm3.612 3.783a4.305 4.305 0 01-1.418-3.38 4.43 4.43 0 011.34-3.062 4.844 4.844 0 013.564-1.181c.587.004 1.173.052 1.752.145.386.07.775.119 1.166.147.108 0 .127.063.127.127 0 .105-.04.227-.069.65-.012.372-.012 1.062-.026 1.22-.013.183-.04.254-.106.254-.092 0-.105-.078-.105-.254a1.56 1.56 0 00-.518-1.154 3.937 3.937 0 00-2.347-.68 3.474 3.474 0 00-2.54.775 3.556 3.556 0 00-1.061 2.902 4.147 4.147 0 004.124 4.134 2.74 2.74 0 002.032-.544c.236-.269.387-.6.436-.954.026-.127.066-.198.148-.198.083 0 .066.093.066.185-.06.497-.149.989-.266 1.475a.432.432 0 01-.304.33 6.35 6.35 0 01-2.095.264 5.576 5.576 0 01-3.9-1.201zm9.197-4.208c0-1.739 0-2.056-.03-2.413-.029-.357-.119-.557-.508-.635a1.885 1.885 0 00-.32-.027c-.092 0-.171-.042-.171-.078 0-.08.066-.106.198-.106.267 0 .624.027 1.366.037.066 0 2.428 0 2.693-.01.174.002.349-.02.518-.066a.365.365 0 01.144-.042c.027 0 .054.027.054.095-.045.196-.08.395-.106.595-.012.224-.026.435-.04.689 0 .12-.026.2-.092.2s-.095-.053-.095-.148a1.27 1.27 0 00-.093-.423c-.078-.266-.198-.36-.86-.398a74.742 74.742 0 00-1.512-.027c-.026 0-.066.027-.066.105v3.012c0 .077.013.127.079.127.159 0 1.511-.01 1.792-.037.303-.015.508-.055.608-.198.053-.082.093-.105.149-.105.026 0 .053.01.053.076s-.053.318-.095.702c-.042.385-.04.635-.054.812-.012.105-.04.142-.092.142-.054 0-.08-.079-.08-.171a1.524 1.524 0 00-.039-.32c-.053-.17-.127-.357-.634-.394a32.275 32.275 0 00-1.592-.053c-.078 0-.092.036-.092.09v.97c0 .41-.013 1.577 0 1.804.026.49.092.743.37.859.312.103.641.144.97.12.337.016.675-.01 1.006-.077.4-.127.492-.381.597-.877.027-.127.066-.186.12-.186.078 0 .078.12.078.198 0 .079-.105.927-.144 1.152-.054.264-.145.296-.585.296-.874 0-1.244-.032-1.709-.032-.465 0-1.075-.037-1.564-.037-.306 0-.558.037-.875.037-.127 0-.188-.021-.188-.09 0-.069.053-.093.127-.093a.988.988 0 00.264-.04c.238-.052.396-.224.423-1.048.015-.45.03-.993.03-2zm6.833-2.873c0-.415.04-.547.145-.547.106 0 .318.267.41.357.12.137 1.963 2.016 3.819 3.913 1.036 1.007 2.362 2.376 2.706 2.693l-.145-5.515c-.013-.72-.093-.954-.452-1.05a3.013 3.013 0 00-.516-.053c-.134 0-.16-.053-.16-.105s.107-.079.24-.079c.567 0 1.124.037 1.244.037.119 0 .544-.037 1.061-.037.145 0 .186.013.186.079s-.04.093-.12.105c-.08.013-.185.01-.333.04-.303.066-.396.198-.396.993l-.026 6.655c0 .663-.027.731-.12.731-.092 0-.227-.095-.875-.704-.056-.027-1.897-1.856-3.047-2.983a1679.754 1679.754 0 00-3.036-3.154l.173 5.184c.027.917.106 1.257.436 1.34.179.04.362.057.545.053.105 0 .159.04.159.093s-.067.09-.211.09c-.716 0-1.194-.037-1.287-.037-.092 0-.584.037-1.151.037-.127 0-.201-.01-.201-.09 0-.053.053-.093.188-.093a1.32 1.32 0 00.41-.053c.29-.093.36-.452.36-1.418-.006-6.324.013-4.292-.006-6.482zm14.088 4.868c0 1.022.012 1.96.065 2.454.04.318.066.5.4.582.169.035.341.053.515.053.105 0 .161.04.161.076 0 .069-.04.106-.174.106-.677 0-1.46-.037-1.511-.037-.052 0-.834.037-1.179.037-.148 0-.2-.022-.2-.09 0-.04.04-.093.148-.093.098.002.195-.002.291-.013.254-.04.291-.198.344-.652.056-.477.056-1.433.056-2.423V44.45c-.438 0-1.143 0-1.672.012-.848.017-1.034.146-1.218.426-.082.128-.15.266-.2.41-.04.092-.067.105-.12.105-.053 0-.066-.053-.066-.12 0-.065.185-.953.264-1.312.042-.159.081-.211.127-.211.093 0 .344.12.582.145.464.056.838.066.85.066h4.347c.32.006.64-.016.956-.066.083-.025.168-.043.254-.054.054 0 .079.066.079.12 0 .372-.027 1.25-.027 1.355 0 .105-.053.158-.092.158-.066 0-.093-.053-.093-.158 0-.063-.005-.126-.013-.188-.053-.531-.224-.66-1.564-.677-.508 0-.914-.013-1.3-.013zm5.466-1.995c0-1.739 0-2.056-.027-2.413-.026-.357-.119-.557-.508-.635a1.876 1.876 0 00-.317-.027c-.095 0-.174-.042-.174-.078 0-.08.066-.106.2-.106.265 0 .622.027 1.364.037.069 0 2.428 0 2.693-.01.174.002.349-.02.518-.066a.365.365 0 01.144-.042c.027 0 .054.027.054.095-.045.196-.08.395-.106.595-.012.224-.026.435-.04.689 0 .12-.026.2-.092.2s-.092-.053-.092-.148a1.27 1.27 0 00-.093-.423c-.083-.266-.2-.36-.864-.398a74.743 74.743 0 00-1.51-.027c-.027 0-.067.027-.067.105v3.012c0 .077.013.127.079.127.161 0 1.511-.01 1.792-.037.303-.015.508-.055.61-.198.054-.082.093-.105.145-.105.027 0 .054.01.054.076s-.054.318-.093.702c-.04.385-.04.635-.053.812-.013.105-.04.142-.093.142s-.083-.079-.083-.171a1.524 1.524 0 00-.04-.32c-.052-.17-.126-.357-.634-.394a31.397 31.397 0 00-1.594-.053c-.078 0-.092.036-.092.09v.97c0 .41-.013 1.577 0 1.804.026.49.092.743.372.859.311.104.64.144.967.12.338.016.676-.01 1.007-.077.4-.127.492-.381.597-.877.027-.127.066-.186.12-.186.078 0 .078.12.078.198 0 .079-.105.927-.145 1.152-.053.264-.144.296-.584.296-.875 0-1.244-.032-1.709-.032-.465 0-1.073-.037-1.564-.037-.304 0-.558.037-.875.037-.12 0-.186-.021-.186-.09a.107.107 0 01.12-.093.99.99 0 00.264-.04c.237-.052.399-.224.425-1.048.013-.45.027-.993.027-2zm7.949-2.657a.127.127 0 01.079-.127c.254-.048.513-.07.773-.066 1.189 0 1.962.795 1.962 2.24a1.907 1.907 0 01-.667 1.682 1.56 1.56 0 01-.894.201 3.468 3.468 0 01-1.188-.171.17.17 0 01-.067-.159zm-1.009 4.653c0 .99.013 2.08-.053 2.56-.04.316-.12.462-.347.499a1.036 1.036 0 01-.29.029c-.08 0-.16.04-.16.076 0 .084.059.105.186.105.357 0 .94-.036 1.154-.036.052 0 .795.036 1.485.036.132 0 .185-.036.185-.105 0-.037-.052-.076-.171-.076a3.557 3.557 0 01-.381-.03c-.44-.05-.48-.314-.518-.634a24.87 24.87 0 01-.066-2.502v-.188c0-.053.012-.066.066-.066l1.366.013a.188.188 0 01.159.079c.223.276.751.998 1.27 1.633.689.887 1.088 1.485 1.643 1.72.387.137.798.19 1.207.159h.927c.187 0 .24-.037.24-.09s-.04-.093-.148-.093c-.04 0-.318-.014-.41-.029a2.224 2.224 0 01-1.406-.806c-.677-.704-1.472-1.687-2.44-2.878a3.31 3.31 0 001.406-2.508 2.006 2.006 0 00-.797-1.616 3.749 3.749 0 00-2.172-.508c-.38 0-1.277.037-1.397.037-.026 0-.835-.037-1.405-.037-.12 0-.159.037-.159.09s.052.082.145.082c.106.002.212.01.317.025.412.08.504.275.531.635.027.359.027.679.027 2.427zM80.575 31.567c-.716-1.823-1.205-2.18-2.343-2.504a4.945 4.945 0 00-1.238-.133c-.194 0-.254-.097-.254-.228 0-.194.326-.227.847-.227 1.562 0 3.318.1 3.71.1.324 0 1.722-.1 2.958-.1.587 0 .879.065.879.227 0 .163-.097.228-.325.228a3.736 3.736 0 00-1.236.165.651.651 0 00-.424.649c.137.716.355 1.415.65 2.082l6.638 17.27c1.886-4.358 6.245-15.71 6.96-18.056.154-.396.253-.812.294-1.235a.803.803 0 00-.423-.747 4.006 4.006 0 00-1.235-.133c-.196 0-.36-.032-.36-.195 0-.195.196-.26.717-.26 1.301 0 2.793.1 3.188.1.194 0 1.595-.1 2.54-.1.357 0 .552.065.552.227 0 .163-.127.228-.39.228a2.941 2.941 0 00-1.562.392c-.421.293-.911.844-1.79 3.056-.357.912-1.982 4.814-3.642 8.816-1.985 4.751-3.448 8.261-4.19 9.858-.912 1.95-1.042 2.47-1.366 2.47-.39 0-.553-.454-1.17-2.017zm26.899 6.348c0-5.08 0-5.986-.064-7.029-.068-1.104-.392-1.65-1.108-1.818a4.169 4.169 0 00-1.008-.133c-.127 0-.254-.065-.254-.195 0-.195.163-.26.52-.26 1.075 0 3.124.099 3.287.099.163 0 2.212-.099 3.187-.099.358 0 .52.065.52.26 0 .127-.126.195-.253.195-.274.01-.546.043-.814.097-.877.165-1.143.718-1.203 1.856-.064 1.042-.064 1.953-.064 7.028v5.727c0 3.12 0 5.69.162 7.058.1.942.295 1.66 1.27 1.79a14.81 14.81 0 001.332.127c.293 0 .39.1.39.196 0 .163-.127.254-.488.254-1.79 0-3.871-.097-4.034-.097-.162 0-2.212.097-3.187.097-.36 0-.522-.065-.522-.254 0-.097.065-.196.36-.196.283-.005.565-.038.842-.097.653-.127.847-.88.977-1.823.164-1.366.164-3.936.164-7.057zm10.408-.009c0-5.08 0-5.986-.065-7.028-.067-1.105-.327-1.626-1.397-1.856a6.196 6.196 0 00-1.106-.097c-.127 0-.254-.065-.254-.195 0-.195.163-.26.52-.26 1.465 0 3.418.1 3.682.1.716 0 2.602-.1 4.099-.1 4.063 0 5.53 1.368 6.05 1.855a5.934 5.934 0 011.626 4.262c0 4.23-3.383 7.352-8 7.352a4.894 4.894 0 01-.683-.032c-.163 0-.357-.064-.357-.227 0-.264.194-.296.878-.296a5.361 5.361 0 005.628-5.56 6.715 6.715 0 00-1.823-4.753 5.655 5.655 0 00-4.456-1.623 4.042 4.042 0 00-1.396.194c-.196.065-.254.293-.254.617v13.373c0 3.12 0 5.69.162 7.058.097.942.294 1.66 1.27 1.79.485.068.973.11 1.463.127.195 0 .26.1.26.196 0 .162-.164.254-.52.254-1.79 0-3.84-.097-4.002-.097-.096 0-2.146.097-3.122.097-.36 0-.522-.065-.522-.254 0-.097.065-.196.26-.196.329-.01.655-.053.975-.127.65-.127.813-.848.944-1.79.164-1.367.164-3.937.164-7.058z"/></svg>