<?xml version="1.0" encoding="UTF-8"?><svg viewBox="0 0 396 320" xmlns="http://www.w3.org/2000/svg" xmlns:xlink="http://www.w3.org/1999/xlink"><style>:root>svg{display:none}:root>svg:target{display:block}</style><svg viewBox="0 0 20 20" id="call" xmlns="http://www.w3.org/2000/svg"><path d="M14.374 20a5.572 5.572 0 0 1-1.912-.342A20.385 20.385 0 0 1 5.06 14.94 20.384 20.384 0 0 1 .342 7.538a5.532 5.532 0 0 1-.283-2.72A5.663 5.663 0 0 1 2.975.667 5.57 5.57 0 0 1 5.64 0c.295 0 .55.206.611.494l.981 4.578a.625.625 0 0 1-.169.573L5.388 7.32a16.451 16.451 0 0 0 7.291 7.29l1.676-1.675a.625.625 0 0 1 .573-.17l4.578.982a.625.625 0 0 1 .494.61c0 .948-.224 1.845-.666 2.667a5.662 5.662 0 0 1-4.153 2.916c-.27.04-.539.059-.807.059Z" fill="#FFF" fill-rule="nonzero"/></svg><svg viewBox="0 0 104987 75353" shape-rendering="geometricPrecision" text-rendering="geometricPrecision" image-rendering="optimizeQuality" fill-rule="evenodd" clip-rule="evenodd" id="crm" xmlns="http://www.w3.org/2000/svg"><path class="bfil0" fill="#fe0" d="M12415 26322c-303 1425-494 2887-664 4356 1208-3960 2456-7402 3907-8264 1611-959 2812 1152 3655 3919 1514 4968 1881 10106 1512 15222-164 2277-1101 12205-4536 11582-1618-294-2956-3822-4210-8298 69 2363 322 4463 779 6271 465 1841 2151 6272 4538 6139 5155-285 6216-16021 6142-19859-65-3410-1490-19180-6098-19289-2626-62-4571 6077-5025 8221z"/><path d="M25070 27618c-834 252-1671 551-2494 866l54 311c3337-641 6181-953 7429-221 1615 949 346 3020-1672 5093-3622 3721-7946 6521-12605 8665-2074 954-11224 4921-12334 1611-523-1559 1923-4432 5239-7690-2037 1200-3755 2434-5118 3706-1388 1296-4458 4909-3190 6937 2736 4378 17033-2281 20359-4196 2956-1701 16085-10555 13958-14644-1212-2331-7528-1074-9626-438z" fill="#ff0483"/><path d="M9936 27618c734 222 1393 451 2118 723-12 19-31 312-55 382-3186-595-5847-856-7051-149-1616 950-347 3020 1671 5093 3622 3722 7946 6521 12606 8665 2074 954 11223 4921 12333 1611 441-1313-1225-3559-3743-6182l406-315c1224 821 2301 1660 3216 2513 1389 1295 4458 4909 3190 6937-2736 4378-17033-2281-20359-4196C11312 40999-1816 32145 311 28056c1211-2331 7527-1073 9625-438zm2509 872c556 212 1074 421 1627 647-588-123-1161-240-1725-348l98-299z" fill="#6a91cc"/><path class="bfil3" d="M60299 26581v15062h4911v-4421h8513v4421h4709c131-387 202-800 202-1230v-1148c0-1921-1427-3524-3274-3802-181-28-365-42-553-43 188-1 372-15 553-43 1847-278 3274-1881 3274-3803v-1147c0-2115-1730-3846-3845-3846H60299zm4911 7244v-3847h6589c1059 0 1924 865 1924 1924 0 1058-865 1923-1924 1923h-6589zm27789 2869-496-1101-1625-3603-525-1165-1914-4244h-7349v15062h4911V30825l4877 10818h4242l4877-10818v10818h4911V26581h-7350l-1913 4244-525 1165-1625 3603z"/><path class="bfil4" d="m70056 54981-835-2600h490l441 1501 156 558c7-27 55-206 143-536l438-1523h480l417 1510 136 495 159-502 477-1503h456l-868 2600h-484l-439-1555-111-445-559 2000h-497zm3847 0-835-2600h490l441 1501 157 558c6-27 54-206 143-536l437-1523h481l416 1510 136 495 159-502 478-1503h455l-867 2600h-485l-439-1555-111-445-559 2000h-497zm3848 0-836-2600h490l442 1501 156 558c6-27 54-206 143-536l438-1523h480l416 1510 136 495 159-502 478-1503h455l-867 2600h-485l-438-1555-112-445-559 2000h-496zm3189 0v-501h533v501h-533zm1336 0v-3587h469v3587h-469zm1195 997v-3597h426v342c100-132 214-231 341-297 126-66 279-100 460-100 236 0 444 57 624 171s316 275 408 482c92 208 138 435 138 683 0 265-51 504-152 717-101 212-248 374-442 488-193 113-396 170-609 170-156 0-297-31-420-93-124-62-226-140-306-234v1268h-468zm426-2281c0 333 72 580 215 739 144 160 318 240 522 240 208 0 385-83 533-248s221-421 221-767c0-331-71-578-216-743-145-164-317-246-518-246-199 0-375 88-527 262-154 175-230 429-230 763zm2350 207v-441h1449v441h-1449zm3767 126 458 60c-51 296-179 527-386 695s-461 252-762 252c-378 0-681-117-910-349-230-232-345-564-345-997 0-280 50-525 148-735 99-210 249-368 451-472 202-105 421-158 659-158 299 0 545 71 735 214 191 143 314 346 367 608l-453 65c-43-175-120-306-231-394-110-88-243-132-399-132-236 0-428 79-576 238s-221 410-221 754c0 349 71 602 213 760 143 158 328 237 556 237 185 0 339-53 461-159 124-105 202-268 235-487zm852 951v-2600h421v399c107-185 207-307 298-365 92-60 192-89 301-89 158 0 319 47 482 140l-167 406c-113-60-227-90-341-90-102 0-193 29-274 87s-138 138-173 240c-52 157-78 328-78 514v1358h-469zm1779 0v-2600h421v368c86-127 202-230 346-307 143-77 307-116 491-116 204 0 372 40 502 120 131 80 223 191 276 334 220-303 506-454 857-454 275 0 488 71 635 214 148 143 223 362 223 659v1782h-469v-1636c0-175-16-302-46-380s-85-139-166-187c-80-48-174-71-282-71-195 0-357 61-485 182-129 122-193 316-193 584v1508h-469v-1687c0-195-38-342-114-440-77-98-202-147-375-147-131 0-253 33-365 98s-193 160-243 286c-50 125-75 306-75 543v1347h-469zm4571 0v-501h533v501h-533zm1779 0h-437v-3587h469v1280c198-232 450-348 757-348 170 0 331 32 483 96 152 65 276 156 375 272 97 116 175 257 230 421 56 164 83 340 83 527 0 444-117 788-350 1031-235 242-515 364-843 364-326 0-582-128-767-383v327zm-6-1319c0 311 46 535 135 674 148 226 347 340 598 340 205 0 382-84 530-251 149-167 224-415 224-746 0-339-71-589-214-750s-316-242-519-242c-205 0-382 83-530 250-149 167-224 409-224 725zm2537-1767v-501h469v501h-469zm0 3086v-2600h469v2600h-469zm936 0v-359l1751-1900c-199 10-374 15-525 15h-1120v-356h2254v290l-1499 1648-287 307c211-17 408-25 592-25h1279v380h-2445z"/><path class="bfil3" d="M43600 26581h-615c-2054 0-3784 1462-4200 3397-63 290-96 591-96 900v6468c0 309 33 610 96 900 416 1935 2146 3397 4200 3397h11217c2363 0 4296-1934 4296-4297v-1536h-4911v554c0 1035-847 1882-1883 1882h-6221c-1036 0-1883-847-1883-1882v-4504c0-1035 847-1882 1883-1882h6221c1036 0 1883 847 1883 1882v554h4911v-1536c0-2363-1933-4297-4296-4297H43600z"/><path class="bfil0" fill="#fe0" d="M41349 43451h60899c1463 0 2660 1198 2660 2661s-1197 2660-2660 2660H41349c-1463 0-2660-1197-2660-2660s1197-2661 2660-2661z"/><path class="bfil4" d="M41704 47512v-2472h505v2051h1250v421h-1755zm7778 0h-544l-215-568h-1000l-207 568h-534l968-2493h533l999 2493zm-923-989-346-923-337 923h683zm4610 989v-2493h489l1026 1671v-1671h467v2493h-505l-1010-1639v1639h-467zm5934-2493h918c207 0 365 15 474 47 145 43 271 120 375 230s183 244 238 404c54 159 81 356 81 589 0 206-26 382-77 531-62 181-151 328-266 440-87 85-205 151-353 199-111 35-259 53-445 53h-945v-2493zm505 421v1651h374c140 0 241-9 303-24 82-21 149-55 203-104s97-129 131-240c34-112 51-264 51-457s-17-340-51-444c-34-103-81-183-142-241-61-57-138-97-232-117-70-16-208-24-412-24h-225zm5411 2072v-2493h505v2493h-505zm4404 0v-2493h489l1026 1671v-1671h467v2493h-505l-1010-1639v1639h-467zm7094-916v-421h1083v994c-105 103-258 193-458 271s-403 117-608 117c-261 0-487-54-681-164s-339-267-437-471c-97-203-146-426-146-665 0-260 55-491 163-694 109-202 268-357 478-465 160-83 358-125 596-125 310 0 552 65 726 195 173 131 285 310 335 540l-501 94c-35-122-101-219-198-291-96-70-217-106-362-106-220 0-394 70-524 210-129 140-194 347-194 621 0 297 65 519 197 667 131 148 303 222 516 222 105 0 211-21 316-62 107-41 197-91 273-151v-316h-574zm5935 916v-2493h807c306 0 505 12 598 37 143 38 262 119 359 244 96 126 144 287 144 486 0 153-28 281-83 386-56 104-126 186-211 246-85 59-172 99-261 118-120 24-293 36-521 36h-327v940h-505zm505-2072v710h274c198 0 330-13 397-39s119-67 156-123c38-56 57-120 57-195 0-91-26-165-79-225-54-59-120-96-202-111-60-11-180-17-361-17h-242zm7224 2072h-544l-215-568h-1000l-207 568h-534l968-2493h533l999 2493zm-923-989-346-923-337 923h683zm5771 73v-421h1082v994c-105 103-257 193-457 271s-403 117-608 117c-261 0-488-54-681-164-194-110-339-267-437-471-97-203-146-426-146-665 0-260 55-491 163-694 109-202 268-357 478-465 160-83 358-125 596-125 310 0 552 65 726 195 173 131 285 310 335 540l-501 94c-35-122-101-219-198-291-97-70-217-106-362-106-220 0-394 70-524 210-129 140-194 347-194 621 0 297 65 519 197 667 131 148 303 222 516 222 105 0 211-21 316-62 107-41 197-91 273-151v-316h-574zm4968 916v-2493h1845v421h-1341v554h1247v421h-1247v676h1390v421h-1894z"/></svg><svg viewBox="0 0 48 48" id="crypto" xmlns="http://www.w3.org/2000/svg"><g fill="#2FBEFF" fill-rule="nonzero"><path d="M32.058 30.502c-1.137 0-2.062-.8-2.062-1.785 0-.984.925-1.785 2.062-1.785 1.137 0 2.063.8 2.063 1.785a.938.938 0 0 0 1.875 0c0-1.718-1.28-3.162-3-3.554v-.488a.938.938 0 0 0-1.875 0v.488c-1.72.392-3 1.836-3 3.554 0 2.018 1.766 3.66 3.937 3.66 1.137 0 2.063.801 2.063 1.785 0 .985-.926 1.786-2.063 1.786s-2.062-.801-2.062-1.785a.938.938 0 0 0-1.875 0c0 1.717 1.28 3.162 3 3.554v.405a.938.938 0 0 0 1.875 0v-.405c1.72-.392 3-1.837 3-3.554 0-2.019-1.767-3.66-3.938-3.66ZM42.326 24.926a12.215 12.215 0 0 0-4.99-4.416.937.937 0 1 0-.812 1.69 10.374 10.374 0 0 1 5.851 9.3c0 1.686-.416 3.359-1.202 4.837a.937.937 0 1 0 1.655.88A12.212 12.212 0 0 0 44.25 31.5c0-2.34-.665-4.613-1.924-6.574ZM33.532 19.313h-.063a.938.938 0 0 0 0 1.875h.059a.938.938 0 0 0 .004-1.875ZM27.6 40.8a10.375 10.375 0 0 1-5.85-9.3c0-1.686.416-3.359 1.202-4.837a.937.937 0 1 0-1.655-.88 12.212 12.212 0 0 0-1.422 5.717c0 2.34.665 4.613 1.924 6.574a12.216 12.216 0 0 0 4.99 4.416.938.938 0 0 0 .812-1.69ZM30.656 41.813h-.054a.937.937 0 1 0-.008 1.874h.062a.938.938 0 0 0 0-1.874Z"/><path d="M36.32 16.14a4.303 4.303 0 0 0-.417-.765h2.44a4.317 4.317 0 0 0 4.313-4.313 4.317 4.317 0 0 0-4.312-4.312h-7.508a4.287 4.287 0 0 0 .758-2.438A4.317 4.317 0 0 0 27.28 0H4.313A4.317 4.317 0 0 0 0 4.313a4.317 4.317 0 0 0 4.313 4.312h7.507a4.287 4.287 0 0 0-.758 2.438c0 .904.28 1.743.758 2.437H9.375a4.317 4.317 0 0 0-4.313 4.313c0 1.365.64 2.584 1.633 3.375a4.306 4.306 0 0 0 0 6.75 4.306 4.306 0 0 0 0 6.75 4.306 4.306 0 0 0-1.633 3.374 4.317 4.317 0 0 0 4.313 4.313h11.048a15.895 15.895 0 0 0 11.64 5.063C40.85 47.438 48 40.288 48 31.5c0-7.314-4.953-13.492-11.68-15.36Zm2.024-7.515a2.44 2.44 0 0 1 2.437 2.438 2.44 2.44 0 0 1-2.437 2.437H15.375a2.44 2.44 0 0 1-2.438-2.438 2.44 2.44 0 0 1 2.438-2.437h22.969ZM4.312 6.75a2.44 2.44 0 0 1-2.437-2.438 2.44 2.44 0 0 1 2.438-2.437H27.28a2.44 2.44 0 0 1 2.438 2.438A2.44 2.44 0 0 1 27.28 6.75H4.313Zm5.063 8.625h22.969c.377 0 .739.088 1.063.245a15.888 15.888 0 0 0-12.623 4.63H9.376a2.44 2.44 0 0 1-2.438-2.438 2.44 2.44 0 0 1 2.438-2.437Zm0 6.75h9.808A15.892 15.892 0 0 0 16.773 27H9.375a2.44 2.44 0 0 1-2.438-2.438 2.44 2.44 0 0 1 2.438-2.437Zm0 6.75h6.968a15.975 15.975 0 0 0-.058 4.875h-6.91a2.44 2.44 0 0 1-2.438-2.438 2.44 2.44 0 0 1 2.438-2.437Zm0 11.625a2.44 2.44 0 0 1-2.438-2.438 2.44 2.44 0 0 1 2.438-2.437h7.292a15.875 15.875 0 0 0 2.25 4.875H9.375Zm22.688 5.063C24.309 45.563 18 39.254 18 31.5c0-7.754 6.309-14.062 14.063-14.062 7.754 0 14.062 6.308 14.062 14.062s-6.308 14.063-14.062 14.063Z"/></g></svg><svg viewBox="0 0 38 35.28" id="facebook" xmlns="http://www.w3.org/2000/svg"><path data-name="Forma 1" class="dcls-2" d="M15.73 30.43h5.114V18.08h3.431s.322-1.99.479-4.17h-3.89v-2.84a1.206 1.206 0 0 1 1.109-.99h2.786V5.75h-3.79c-5.365 0-5.239 4.16-5.239 4.78v3.4h-2.489v4.15h2.489v12.35z"/></svg><svg viewBox="0 0 48 49" id="handshake" xmlns="http://www.w3.org/2000/svg"><g fill="#2FBEFF" fill-rule="nonzero"><path d="M23.832 6.1a.944.944 0 0 0 .945-.945V.945a.944.944 0 0 0-1.889 0v4.21c0 .522.423.944.944.944ZM46.911 32.436l-1.668-1.663a3.13 3.13 0 0 0-2.226-.92c-.54 0-1.056.135-1.515.386L38.36 27.1l.153-.152a3.277 3.277 0 0 0 0-4.627 3.241 3.241 0 0 0-1.643-.889c.085-.294.13-.603.13-.919 0-.877-.34-1.699-.958-2.313a3.241 3.241 0 0 0-1.643-.889c.085-.294.13-.603.13-.918 0-.877-.34-1.7-.958-2.315a3.256 3.256 0 0 0-1.642-.886 3.282 3.282 0 0 0-.827-3.236 3.278 3.278 0 0 0-2.666-.934l-6.228-1.18c-.95-.18-2.136-.299-2.885.384a1.705 1.705 0 0 0-.143.148 3.283 3.283 0 0 0-3.444.758 3.248 3.248 0 0 0-.957 2.314c0 .316.045.624.13.919a3.236 3.236 0 0 0-1.64.887 3.244 3.244 0 0 0-.96 2.312c0 .316.044.626.13.921a3.243 3.243 0 0 0-1.643.886 3.251 3.251 0 0 0-.958 2.316c0 .671.2 1.31.572 1.85a3.254 3.254 0 0 0-1.258.783 3.277 3.277 0 0 0 .001 4.63l.153.152-3.144 3.137a3.157 3.157 0 0 0-3.572.62L.921 32.521A3.125 3.125 0 0 0 0 34.748c0 .844.327 1.635.92 2.227l2.083 2.08a.944.944 0 1 0 1.335-1.335l-2.083-2.08a1.25 1.25 0 0 1-.367-.892c0-.338.13-.654.366-.89l1.67-1.664a1.264 1.264 0 0 1 1.54-.19.952.952 0 0 0 .39.335l9.57 9.557a.941.941 0 0 0 .456.46c.202.229.314.521.314.833 0 .338-.13.655-.367.891l-1.667 1.665c-.493.49-1.294.49-1.785.002l-2.083-2.083a.944.944 0 1 0-1.335 1.335l2.084 2.085c.614.61 1.42.916 2.225.916.807 0 1.613-.306 2.228-.917l1.668-1.667c.594-.593.92-1.384.92-2.227 0-.602-.167-1.176-.478-1.672l3.538-3.533.011-.012c.405-.419 1.533-.34 2.624-.265.775.054 1.64.114 2.484.017l3.874 3.87a3.134 3.134 0 0 0-.385 1.511c0 .843.327 1.633.92 2.226l1.67 1.667a3.129 3.129 0 0 0 2.226.919c.842 0 1.633-.327 2.226-.92l10.12-10.107c.593-.592.92-1.383.92-2.227 0-.843-.327-1.633-.92-2.227ZM21.856 9.697l4.095.775-2.451 2.45c-.38-.181-.9-.521-1.47-1.067-.78-.746-1.338-1.609-1.389-2.146v-.001a.825.825 0 0 1-.004-.093c.123-.03.451-.064 1.219.082Zm-4.787.77a1.393 1.393 0 0 1 1.762-.167c.306 1.284 1.401 2.448 1.894 2.92.366.349 1.538 1.397 2.72 1.685.16.23.248.503.248.791 0 .372-.143.72-.404.98-.26.26-.608.403-.98.403-.373 0-.72-.143-.982-.404v-.001l-4.258-4.25a1.372 1.372 0 0 1-.403-.979c0-.371.143-.719.403-.978Zm-2.467 4.12c.26-.26.607-.404.98-.404.371 0 .72.144.982.405l3.428 3.422c.54.54.54 1.42.002 1.96-.261.26-.61.403-.983.403s-.723-.143-.983-.402l-2.601-2.601-.013-.012-.813-.813a1.374 1.374 0 0 1-.405-.98c0-.37.144-.717.406-.978Zm-2.472 4.119c.26-.26.608-.403.981-.403.37 0 .716.141.974.396l2.61 2.608c.26.26.403.607.403.978s-.143.718-.404.978c-.26.26-.608.403-.98.403-.374 0-.723-.144-.983-.403l-.946-.944v-.001l-1.655-1.652a1.375 1.375 0 0 1-.404-.98c0-.371.143-.72.404-.98Zm-1.644 4.949c.26-.261.61-.405.982-.405s.721.144.982.404l.947.946c.26.26.404.607.404.978s-.143.718-.406.98c-.26.26-.607.403-.98.403-.372 0-.72-.143-.982-.405l-.119-.119-.004-.004-.005-.005-.819-.815a1.387 1.387 0 0 1 0-1.958Zm19.24 10.73a.944.944 0 0 0-1.335 0l-.84.838c-.798.798-2.244.698-3.643.6-1.519-.105-3.09-.214-4.106.83l-3.477 3.473-8.697-8.683 3.078-3.073a3.259 3.259 0 0 0 1.71.48c.877 0 1.7-.34 2.314-.956.619-.616.96-1.439.96-2.316l-.001-.024h.024c.877 0 1.699-.339 2.314-.953.619-.617.96-1.439.96-2.316l-.001-.024h.025a3.262 3.262 0 0 0 3.273-3.294h.025c.878 0 1.7-.34 2.316-.956a3.248 3.248 0 0 0 .956-2.315c0-.613-.166-1.199-.477-1.706l2.697-2.697a1.385 1.385 0 0 1 .792-.39c.417-.058.855.07 1.174.388.54.541.54 1.421.002 1.96l-.822.818-.008.008-.947.945a.944.944 0 1 0 1.335 1.336l.825-.824.125-.125a1.39 1.39 0 0 1 1.96.005c.26.259.403.606.403.977 0 .372-.144.719-.406.98l-.826.828-.946.942a.944.944 0 1 0 1.332 1.338l.95-.946c.26-.26.608-.404.98-.404.373 0 .721.144.983.406.26.259.404.606.404.977s-.144.719-.405.98l-1.648 1.647a.944.944 0 0 0 1.336 1.335l.807-.808.014-.012c.26-.26.608-.404.98-.404.373 0 .72.143.982.405.539.538.539 1.417 0 1.957l-.821.82h-.001v.001l-1.304 1.301a.944.944 0 0 0 1.335 1.336l.637-.636 3.054 3.05-8.696 8.686-3.115-3.112c.217-.14.425-.304.62-.5l.84-.838a.944.944 0 0 0 0-1.335Zm15.851 1.17-10.12 10.107a1.253 1.253 0 0 1-.891.366c-.339 0-.656-.13-.893-.367l-1.668-1.666a1.248 1.248 0 0 1-.367-.89c0-.337.13-.653.367-.89l10.12-10.106c.236-.237.553-.367.892-.367.338 0 .655.13.892.367l1.668 1.663c.237.237.367.553.367.891 0 .339-.13.655-.367.891ZM11.295 5.303a.941.941 0 0 0 1.336-.001.944.944 0 0 0-.002-1.335L9.19.533A.944.944 0 1 0 7.855 1.87l3.44 3.433ZM35.703 5.58a.941.941 0 0 0 .667-.277l3.438-3.434A.944.944 0 1 0 38.473.534l-3.438 3.433a.944.944 0 0 0 .668 1.612Z"/><path d="M5.805 40.613a.944.944 0 0 0 .012 1.335l.003.003a.942.942 0 0 0 1.334-.013.946.946 0 0 0-1.349-1.325ZM32.035 33.025a.945.945 0 1 0-.424-1.788l-.005.003a.944.944 0 0 0 .43 1.785Z"/></g></svg><svg version="1.0" viewBox="0 0 240 240" id="instagram" xmlns="http://www.w3.org/2000/svg"><path d="M63.2 1.1c-26 3-44.5 14.7-54 34C.9 52 0 60.5 0 120c0 59.5.9 68 9.2 84.9 5.7 11.5 14.4 20.2 25.9 25.9C52 239.1 60.5 240 120 240c59.5 0 68-.9 84.9-9.2 19.8-9.7 30.9-27.8 34.1-55.3 1.3-11.7 1.3-99.3 0-111-2.3-19.8-8.2-33.7-19-44.5-10.8-10.8-24.7-16.7-44.5-19C164.8-.2 73.8-.1 63.2 1.1zM172.8 23c28.5 2.9 41.3 15.7 44.2 44.2 1.3 13 1.3 92.6 0 105.6-2.9 28.5-15.7 41.3-44.2 44.2-13 1.3-92.6 1.3-105.6 0-28.5-2.9-41.3-15.7-44.2-44.2-1.3-13-1.3-92.6 0-105.6.6-5.5 2-12.7 3.1-15.9 5.6-16.6 18.8-26 39.5-28.2 11.6-1.2 95.5-1.3 107.2-.1z"/><path d="M179.5 42.1c-8.9 2.6-12.5 14.1-7 22.5 4.1 6.3 15.9 7.3 21.5 1.9 8.1-7.8 4.7-21.4-6.1-24.5-3.9-1.1-4.3-1.1-8.4.1zM107 59.6c-32.7 7-54.3 40.2-47.5 72.9 6.9 33.1 40 54.9 73 48 23.6-4.9 43.1-24.4 48-48 2.9-14 1.2-26.7-5.6-40.4-12.2-24.7-40.7-38.4-67.9-32.5zm22.5 21.9c11.7 3.1 20.9 10.5 26.1 21 11.7 24-2.6 51.7-29.4 56.7-20.8 3.9-41.3-11.1-45.4-33-2.8-15 5-31.9 18.3-39.9 9.9-5.9 19.9-7.5 30.4-4.8z"/></svg><svg viewBox="0 0 20 28" id="location" xmlns="http://www.w3.org/2000/svg"><g fill="#2FBEFF" fill-rule="nonzero"><path d="M9.6 0C4.307 0 0 4.307 0 9.6a9.58 9.58 0 0 0 1.433 5.048l7.62 12.28a.8.8 0 0 0 .68.379h.007a.8.8 0 0 0 .68-.39l7.426-12.399A9.589 9.589 0 0 0 19.2 9.6c0-5.293-4.307-9.6-9.6-9.6Zm6.873 13.697L9.72 24.97 2.793 13.805A7.99 7.99 0 0 1 1.589 9.6c0-4.411 3.6-8.01 8.011-8.01s8.005 3.599 8.005 8.01a7.993 7.993 0 0 1-1.132 4.097Z"/><path d="M9.6 4.8a4.805 4.805 0 0 0-4.8 4.8c0 2.63 2.118 4.8 4.8 4.8 2.715 0 4.8-2.2 4.8-4.8 0-2.647-2.153-4.8-4.8-4.8Zm0 8.01A3.213 3.213 0 0 1 6.39 9.6 3.222 3.222 0 0 1 9.6 6.39a3.217 3.217 0 0 1 3.205 3.21A3.207 3.207 0 0 1 9.6 12.81Z"/></g></svg><svg viewBox="0 0 24 18" id="mail" xmlns="http://www.w3.org/2000/svg"><path d="M21.75 0H2.25C1.01 0 0 1.01 0 2.25v13.5C0 16.99 1.01 18 2.25 18h19.5c1.24 0 2.25-1.01 2.25-2.25V2.25C24 1.01 22.99 0 21.75 0zm0 1.5a.74.74 0 0 1 .287.058L12 10.258l-10.037-8.7A.747.747 0 0 1 2.25 1.5h19.5zm0 15H2.25a.75.75 0 0 1-.75-.75V3.143l10.009 8.674a.75.75 0 0 0 .982 0L22.5 3.143V15.75a.75.75 0 0 1-.75.75z" fill="#2FBEFF" fill-rule="nonzero"/></svg><svg fill="none" viewBox="0 0 150 42" id="prom" xmlns="http://www.w3.org/2000/svg"><g clip-path="url(#ia)" fill-rule="evenodd" clip-rule="evenodd"><path d="M58.82 25.473c1.118-1.118 1.656-2.461 1.656-4.028 0-1.567-.538-2.91-1.656-3.983-1.12-1.12-2.462-1.656-4.074-1.656-1.654 0-3.042.537-4.205 1.656-1.119 1.074-1.702 2.416-1.702 3.983 0 1.567.583 2.91 1.702 4.028 1.163 1.075 2.55 1.611 4.205 1.611 1.612 0 2.955-.536 4.074-1.61v-.001ZM42.573 41.361V10.167h6.669v2.954c.67-1.97 3.311-3.356 6.713-3.356 3.178 0 5.863 1.118 7.967 3.4 2.148 2.238 3.222 5.013 3.222 8.28 0 3.268-1.074 6.042-3.222 8.325-2.104 2.237-4.789 3.356-7.967 3.356-3.402 0-6.042-1.386-6.713-3.356v11.59l-6.669.001Zm28.017-8.637V10.166h6.668v3.09c1.03-2.284 3.446-3.582 6.534-3.582.448 0 1.03.045 1.746.135v6.265a11.48 11.48 0 0 0-2.238-.223c-3.804 0-6.042 2.148-6.042 5.862v11.01l-6.668.001Zm24.57-7.072c1.118 1.119 2.506 1.7 4.162 1.7 1.656 0 3.043-.581 4.162-1.7 1.119-1.163 1.702-2.55 1.702-4.207 0-1.656-.583-3.043-1.702-4.162-1.119-1.164-2.506-1.745-4.162-1.745-1.656 0-3.044.58-4.163 1.745-1.118 1.119-1.7 2.506-1.7 4.162 0 1.656.582 3.088 1.7 4.207h.001Zm13.024-12.666c2.461 2.282 3.669 5.103 3.669 8.46 0 3.356-1.208 6.175-3.669 8.502-2.463 2.284-5.416 3.447-8.862 3.447-3.49 0-6.444-1.163-8.907-3.447-2.416-2.327-3.625-5.146-3.625-8.503 0-3.356 1.21-6.177 3.625-8.46 2.463-2.326 5.416-3.49 8.907-3.49 3.446 0 6.399 1.164 8.862 3.49m7.159 19.739V10.166h6.669v2.82c.85-1.968 3.132-3.312 5.863-3.312 3.043 0 5.101 1.208 6.131 3.582 1.254-2.374 3.759-3.582 7.519-3.582 5.148 0 8.012 3.491 8.012 9.354v13.696h-6.669v-12.89c0-2.64-1.208-4.252-3.356-4.252-2.193 0-3.76 1.836-3.76 4.476v12.666h-6.669v-12.89c0-2.64-1.208-4.252-3.356-4.252-2.149 0-3.715 1.836-3.715 4.476v12.666h-6.669Z" fill="#fff"/><path d="M0 33.05h33.05V0H0v33.05Zm7.574-7.575h17.901V7.574H7.574v17.901Z" fill="url(#ib)"/></g><defs><linearGradient id="ib" x1="0" y1="0" x2="33.049" y2="33.049" gradientUnits="userSpaceOnUse"><stop offset="1" stop-color="#4854A2"/><stop offset="1" stop-color="#772088"/></linearGradient><clipPath id="ia"><path fill="#fff" d="M0 0h150v42H0z"/></clipPath></defs></svg><svg viewBox="0 0 48 48" id="rocket" xmlns="http://www.w3.org/2000/svg"><g fill="#2FBEFF" fill-rule="nonzero"><path d="M25.187 22.814a.938.938 0 1 0-1.326 1.325.938.938 0 0 0 1.326-1.325ZM37.119 10.882a4.686 4.686 0 0 0-6.63 0 4.694 4.694 0 0 0 0 6.629 4.694 4.694 0 0 0 6.63 0 4.685 4.685 0 0 0 0-6.63Zm-1.326 5.303a2.816 2.816 0 0 1-3.978 0 2.816 2.816 0 0 1 0-3.978 2.811 2.811 0 0 1 3.978 0 2.811 2.811 0 0 1 0 3.978Z"/><path d="M47.725.275A.934.934 0 0 0 47.03 0c-.212.007-5.26.21-11.259 2.33-4.807 1.698-8.814 4.128-11.91 7.224a35.675 35.675 0 0 0-2.014 2.193c-3.061-1.801-5.514-1.236-7.064-.407-3.57 1.911-5.78 7.099-5.78 10.81a.938.938 0 0 0 1.6.662c1.883-1.882 4.205-1.765 4.964-1.665l.328.328a32.975 32.975 0 0 0-1.548 4.554 2.654 2.654 0 0 0 .114 1.628 8.878 8.878 0 0 0-2.532 1.785c-2.413 2.413-2.903 8.295-2.923 8.544a.938.938 0 0 0 1.008 1.008c.25-.02 6.13-.51 8.544-2.923a8.878 8.878 0 0 0 1.785-2.53 2.647 2.647 0 0 0 1.63.112 32.979 32.979 0 0 0 4.552-1.548l.328.328c.1.759.217 3.081-1.665 4.964a.938.938 0 0 0 .663 1.6c3.71 0 8.898-2.21 10.809-5.78.83-1.55 1.394-4.003-.407-7.064.763-.645 1.5-1.32 2.193-2.014 3.096-3.096 5.526-7.103 7.223-11.91 2.12-6 2.324-11.047 2.331-11.259a.938.938 0 0 0-.274-.696ZM11.098 20.134c.582-2.818 2.274-5.911 4.569-7.14 1.533-.82 3.21-.74 4.992.236a37.906 37.906 0 0 0-3.939 6.42c-.014-.008-.183-.22-.496-.29-.129-.03-2.61-.564-5.126.774Zm6.133 14.613c-1.289 1.289-4.313 1.969-6.224 2.246.278-1.911.958-4.935 2.247-6.224.722-.722 1.559-1.27 2.4-1.577l3.155 3.154c-.309.842-.856 1.679-1.578 2.4Zm4.274-2.91c-.271.07-.585-.032-.819-.265a17420.51 17420.51 0 0 0-1.836-1.836l-2.421-2.421c-.234-.235-.336-.549-.267-.82.3-1.17.693-2.369 1.17-3.58l7.753 7.752a30.42 30.42 0 0 1-3.58 1.17Zm13.5.497c-1.228 2.294-4.32 3.986-7.139 4.568.899-1.69 1.097-3.843.769-5.148-.076-.304-.274-.456-.285-.474a37.92 37.92 0 0 0 6.42-3.939c.976 1.783 1.056 3.46.236 4.993Zm2.114-9.52a34.028 34.028 0 0 1-2.703 2.426 36.019 36.019 0 0 1-7.474 4.633l-8.814-8.815a36.013 36.013 0 0 1 4.632-7.473c.766-.95 1.582-1.86 2.426-2.704 2.778-2.778 6.362-4.988 10.657-6.58l7.855 7.856c-1.59 4.295-3.801 7.88-6.579 10.657Zm7.254-12.634L37.82 3.627a42.149 42.149 0 0 1 8.226-1.673 42.155 42.155 0 0 1-1.673 8.226Z"/><path d="M22.535 38.723a.938.938 0 0 0-1.326 0l-2.651 2.653a.938.938 0 0 0 1.326 1.325l2.651-2.652a.938.938 0 0 0 0-1.326ZM9.277 25.465a.938.938 0 0 0-1.326 0L5.3 28.116a.938.938 0 0 0 1.325 1.326l2.653-2.65a.938.938 0 0 0 0-1.327ZM15.906 40.05a.938.938 0 0 0-1.326 0L8.23 46.4a.937.937 0 1 0 1.325 1.326l6.35-6.35a.937.937 0 0 0 0-1.326ZM8.406 40.05a.938.938 0 0 0-1.326 0L.73 46.4a.937.937 0 1 0 1.325 1.326l6.35-6.35a.937.937 0 0 0 0-1.326ZM7.95 32.094a.938.938 0 0 0-1.326 0l-6.35 6.35a.938.938 0 0 0 1.327 1.327l6.35-6.35a.938.938 0 0 0 0-1.327ZM29.164 18.836a.938.938 0 0 0-1.326 0l-1.325 1.326a.938.938 0 0 0 1.325 1.326l1.326-1.326a.938.938 0 0 0 0-1.326Z"/></g></svg><svg viewBox="0 0 48 48" id="schedule" xmlns="http://www.w3.org/2000/svg"><defs><linearGradient x1="50%" y1="0%" x2="54.278%" y2="97.505%" id="ka"><stop stop-color="#2FBEFF" offset="0%"/><stop stop-color="#2930C3" offset="100%"/></linearGradient><path d="M78 86.4V88H30v-1.6h48zm-38.4-8a.8.8 0 0 1 .8.8V84a.8.8 0 0 1-.8.8H34a.8.8 0 0 1-.8-.8v-4.8a.8.8 0 0 1 .8-.8zm8.8-2.4a.8.8 0 0 1 .8.8V84a.8.8 0 0 1-.8.8h-5.6a.8.8 0 0 1-.8-.8v-7.2a.8.8 0 0 1 .8-.8zm8.8-4a.8.8 0 0 1 .8.8V84a.8.8 0 0 1-.8.8h-5.6a.8.8 0 0 1-.8-.8V72.8a.8.8 0 0 1 .8-.8zm8.8-5.6a.8.8 0 0 1 .8.8V84a.8.8 0 0 1-.8.8h-5.6a.8.8 0 0 1-.8-.8V67.2a.8.8 0 0 1 .8-.8zm8.8-11.2a.8.8 0 0 1 .8.8v28a.8.8 0 0 1-.8.8h-5.6a.8.8 0 0 1-.8-.8V56a.8.8 0 0 1 .8-.8zM38.8 80h-4v3.2h4V80zm8.8-2.4h-4v5.6h4v-5.6zm8.8-4h-4v9.6h4v-9.6zm8.8-5.6h-4v15.2h4V68zM74 56.8h-4v26.4h4V56.8zm-1.857-16.758a.8.8 0 0 1 .973.401l3.2 6.4a.8.8 0 1 1-1.432.715L72.53 42.85l-1.29 3.69A44.292 44.292 0 0 1 33.267 76l-.136-1.6a42.692 42.692 0 0 0 36.596-28.388l1.265-3.611-4.635 2.316a.8.8 0 0 1-.716-1.432l6.4-3.2zM41.2 54.4V56H34v-1.6h7.2zm0-3.2v1.6H34v-1.6h7.2zm3.2-3.2v1.6H34V48h10.4zm0-3.2v1.6H34v-1.6h10.4z" id="kb"/></defs><g transform="translate(-30 -40)" fill-rule="nonzero" fill="none"><use fill="url(#ka)" xlink:href="#kb"/><use fill="#2FBEFF" xlink:href="#kb"/></g></svg><svg viewBox="0 0 17 16" id="send" xmlns="http://www.w3.org/2000/svg"><path d="M16.648 7.44.863.055a.605.605 0 0 0-.727.173.619.619 0 0 0-.014.756l5.19 7.015-5.19 7.016a.62.62 0 0 0 .013.756.602.602 0 0 0 .726.172l15.786-7.385A.615.615 0 0 0 17 8a.616.616 0 0 0-.352-.558z" fill="#FFF" fill-rule="nonzero"/></svg><svg viewBox="0 0 24 24" id="tel" xmlns="http://www.w3.org/2000/svg"><path d="M17.249 24a6.687 6.687 0 0 1-2.294-.41 24.462 24.462 0 0 1-8.883-5.662A24.46 24.46 0 0 1 .41 9.045 6.638 6.638 0 0 1 .07 5.782a6.795 6.795 0 0 1 1.156-2.897A6.823 6.823 0 0 1 3.57.8C4.556.27 5.633 0 6.77 0a.75.75 0 0 1 .733.593L8.68 6.086a.75.75 0 0 1-.203.688L6.466 8.785a19.741 19.741 0 0 0 8.749 8.75l2.011-2.012a.75.75 0 0 1 .688-.203l5.493 1.177a.75.75 0 0 1 .593.733 6.683 6.683 0 0 1-.8 3.2 6.823 6.823 0 0 1-2.085 2.343 6.795 6.795 0 0 1-2.897 1.156 6.664 6.664 0 0 1-.97.071ZM6.17 1.533c-1.5.165-2.83.951-3.714 2.213a5.167 5.167 0 0 0-.636 4.787A22.748 22.748 0 0 0 15.467 22.18a5.167 5.167 0 0 0 4.787-.636 5.195 5.195 0 0 0 2.213-3.714l-4.469-.958-2.1 2.1a.75.75 0 0 1-.85.15 21.236 21.236 0 0 1-10.17-10.17.75.75 0 0 1 .15-.85l2.1-2.1-.958-4.47Z" fill="#2FBEFF" fill-rule="nonzero"/></svg><svg version="1.0" viewBox="0 0 225 225" id="telegram" xmlns="http://www.w3.org/2000/svg"><path d="m103.7 83.7-63.8 25.5.3 3.1c.3 3.2.3 3.2 17.3 8.7l16.9 5.6 6.2 19.4c3.4 10.7 6.7 20.2 7.3 21.2 2 3.2 5 1.9 12.9-5.5 4.2-3.9 8.7-8 9.8-9 2.2-1.8 2.4-1.7 20 11.2 18.4 13.5 21.6 15 23.4 10.9 1.6-3.6 25-104.7 25-108 0-4-4.8-8.8-8.7-8.7-1.5.1-31.5 11.6-66.6 25.6zm61.7-12.9c-1.1.9-17.6 15.6-36.6 32.6l-34.6 30.8-1.1 6.1c-.6 3.4-1.4 8.3-1.7 10.9-.4 2.7-1 4.8-1.3 4.8-1 0-9.1-30.4-8.3-31.2C82.9 123.7 166.4 69 167 69c.3.1-.4.8-1.6 1.8z"/></svg><svg viewBox="0 0 55 32" id="trendcrm" xmlns="http://www.w3.org/2000/svg"><defs><linearGradient id="ob" gradientUnits="userSpaceOnUse" x1="6.5" y1="60.759" x2="213.5" y2="60.759"><stop offset="0" style="stop-color:#f5f8fb;stop-opacity:1"/><stop offset="1" style="stop-color:#e9eef7;stop-opacity:1"/></linearGradient><linearGradient id="oc" gradientUnits="userSpaceOnUse" x1="55.727" y1="45.894" x2="55.727" y2="64.277" gradientTransform="scale(.25)"><stop offset="0" style="stop-color:#323232;stop-opacity:1"/><stop offset="1" style="stop-color:#000;stop-opacity:1"/></linearGradient><linearGradient id="od" gradientUnits="userSpaceOnUse" x1="73.742" y1="45.894" x2="73.742" y2="64.277" gradientTransform="scale(.25)"><stop offset="0" style="stop-color:#323232;stop-opacity:1"/><stop offset="1" style="stop-color:#000;stop-opacity:1"/></linearGradient><linearGradient id="oe" gradientUnits="userSpaceOnUse" x1="91.758" y1="45.894" x2="91.758" y2="64.277" gradientTransform="scale(.25)"><stop offset="0" style="stop-color:#323232;stop-opacity:1"/><stop offset="1" style="stop-color:#000;stop-opacity:1"/></linearGradient><linearGradient id="of" gradientUnits="userSpaceOnUse" x1="109.773" y1="45.894" x2="109.773" y2="64.277" gradientTransform="scale(.25)"><stop offset="0" style="stop-color:#323232;stop-opacity:1"/><stop offset="1" style="stop-color:#000;stop-opacity:1"/></linearGradient><linearGradient id="og" gradientUnits="userSpaceOnUse" x1="130.04" y1="45.894" x2="130.04" y2="64.277" gradientTransform="scale(.25)"><stop offset="0" style="stop-color:#323232;stop-opacity:1"/><stop offset="1" style="stop-color:#000;stop-opacity:1"/></linearGradient><linearGradient id="oh" gradientUnits="userSpaceOnUse" x1="148.055" y1="45.894" x2="148.055" y2="64.277" gradientTransform="scale(.25)"><stop offset="0" style="stop-color:#323232;stop-opacity:1"/><stop offset="1" style="stop-color:#000;stop-opacity:1"/></linearGradient><linearGradient id="oi" gradientUnits="userSpaceOnUse" x1="166.071" y1="45.894" x2="166.071" y2="64.277" gradientTransform="scale(.25)"><stop offset="0" style="stop-color:#323232;stop-opacity:1"/><stop offset="1" style="stop-color:#000;stop-opacity:1"/></linearGradient><linearGradient id="oj" gradientUnits="userSpaceOnUse" x1="188.027" y1="45.894" x2="188.027" y2="64.277" gradientTransform="scale(.25)"><stop offset="0" style="stop-color:#323232;stop-opacity:1"/><stop offset="1" style="stop-color:#000;stop-opacity:1"/></linearGradient><linearGradient id="ok" gradientUnits="userSpaceOnUse" x1="30.814" y1="40.453" x2="30.814" y2="70.016" gradientTransform="scale(.25)"><stop offset="0" style="stop-color:#ffcb32;stop-opacity:1"/><stop offset="1" style="stop-color:#cd9900;stop-opacity:1"/></linearGradient><clipPath id="oa"><path d="M0 0h55v31.754H0Zm0 0"/></clipPath></defs><g clip-path="url(#oa)"><path style="stroke:none;fill-rule:nonzero;fill:#fff;fill-opacity:1" d="M52.922 27.363 28.3 31.683a4.595 4.595 0 0 1-1.602 0l-24.62-4.32a2.5 2.5 0 0 1-1.49-.86A2.488 2.488 0 0 1 0 24.892V0h55v24.89c0 .59-.207 1.165-.59 1.614a2.5 2.5 0 0 1-1.488.86Zm0 0"/><path style="fill:none;stroke-width:1;stroke-linecap:butt;stroke-linejoin:miter;stroke:url(#ob);stroke-miterlimit:10" d="M213 1v91.563c0 4.874-3.281 9.046-7.781 9.89L113 119.734a16.14 16.14 0 0 1-6 0l-92.219-17.28C10.281 101.608 7 97.437 7 92.562V1" transform="scale(.25)"/></g><path style="stroke:none;fill-rule:nonzero;fill:url(#oc)" d="M13.496 16.023v-3.82h-1.758v-.676h4.367v.676h-1.761v3.82Zm0 0"/><path style="stroke:none;fill-rule:nonzero;fill:url(#od)" d="M16.426 12.293c0-.14.027-.297.027-.297.024-.152.16-.289.16-.289a.626.626 0 0 1 .262-.148c.14-.032.277-.032.277-.032h2.133c.117 0 .246.008.246.008a1.005 1.005 0 0 1 .5.172c.117.078.219.23.219.23.102.149.164.313.195.489.032.258.032.504.032.504 0 .242-.028.5-.028.5-.023.258-.168.511-.168.511-.043.086-.11.164-.11.164-.062.075-.16.145-.16.145a.833.833 0 0 1-.241.11c-.149.038-.336.046-.336.046h-.579v.031l1.711 1.586H19.5l-1.48-1.457c-.07-.07-.141-.171-.141-.171-.07-.106-.07-.207-.07-.207v-.102c0-.137.097-.219.097-.219.094-.086.282-.09.282-.09h.847c.11 0 .238-.035.238-.035.13-.031.227-.164.227-.164.031-.055.05-.137.05-.137.02-.082.032-.168.032-.168.012-.082.012-.171.012-.171 0-.09.008-.141.008-.141 0-.27-.047-.414-.047-.414-.043-.14-.114-.211-.114-.211-.101-.102-.238-.113-.238-.113-.137-.016-.238-.02-.238-.02H17.59c-.07 0-.121.004-.121.004-.055.008-.106.066-.106.066-.07.059-.074.114-.074.114a5.102 5.102 0 0 0-.016.136v3.504h-.847Zm0 0"/><path style="stroke:none;fill-rule:nonzero;fill:url(#oe)" d="M21.824 16.023c-.144 0-.273-.011-.273-.011-.13-.012-.238-.13-.238-.13-.118-.109-.141-.25-.141-.25-.027-.14-.027-.277-.027-.277v-3.187c0-.133.039-.254.039-.254a.703.703 0 0 1 .113-.215c.11-.12.258-.144.258-.144.148-.028.285-.028.285-.028h2.887v.676h-2.43c-.059 0-.117.004-.117.004a.272.272 0 0 0-.117.059c-.051.05-.055.109-.055.109l-.016.11v.906h2.668v.675h-2.668v1.055c0 .121.067.172.067.172.039.039.109.043.109.043.07.008.18.016.18.016h2.402v.671Zm0 0"/><path style="stroke:none;fill-rule:nonzero;fill:url(#of)" d="M29.637 15.441c0 .34-.192.489-.192.489-.195.148-.476.148-.476.148-.207 0-.395-.07-.395-.07-.183-.074-.332-.309-.332-.309l-1.898-2.996a.508.508 0 0 0-.07-.09c-.02-.02-.032-.02-.032-.02-.027 0-.058.028-.058.028-.032.024-.032.102-.032.102v3.3h-.824v-3.937c0-.29.18-.45.18-.45.183-.16.508-.16.508-.16.304 0 .464.102.464.102.16.102.25.25.25.25l1.91 3.016c.024.031.04.07.04.07.011.04.062.04.062.04.051 0 .059-.04.059-.04.008-.039.012-.07.012-.07v-3.317h.824Zm0 0"/><path style="stroke:none;fill-rule:nonzero;fill:url(#og)" d="M31.258 15.043v.129c0 .055.058.113.058.113a.154.154 0 0 0 .102.059c.059.008.113.008.113.008h.98c.352 0 .583-.09.583-.09.234-.09.386-.328.386-.328.086-.13.157-.41.157-.41.07-.286.07-.864.07-.864 0-.14-.008-.293-.008-.293a1.59 1.59 0 0 0-.043-.305c-.039-.148-.097-.28-.097-.28-.059-.137-.168-.25-.168-.25a.974.974 0 0 0-.211-.169c-.117-.066-.25-.097-.25-.097-.137-.032-.258-.051-.258-.051-.125-.02-.246-.012-.246-.012h-.88c-.038 0-.097.004-.097.004a.246.246 0 0 0-.101.04c-.04.034-.067.089-.067.089-.023.059-.023.137-.023.137Zm-.16.98c-.254 0-.364-.05-.364-.05-.109-.051-.14-.07-.14-.07-.063-.051-.121-.153-.121-.153-.059-.105-.067-.297-.067-.297v-3.207c0-.129.02-.262.02-.262.02-.136.137-.265.137-.265.05-.051.16-.121.16-.121.109-.07.32-.07.32-.07h1.762c.468 0 .793.152.793.152.195.097.375.226.527.383.102.113.184.242.25.382.09.207.14.426.14.426.051.219.051.438.051.438 0 .218.016.418.016.418 0 .183-.008.41-.008.41-.008.222-.05.46-.05.46a3.89 3.89 0 0 1-.126.466c-.074.222-.214.41-.214.41-.075.09-.176.187-.176.187-.102.094-.258.18-.258.18-.152.082-.36.133-.36.133-.206.054-.468.054-.468.054h-1.824Zm0 0"/><path style="stroke:none;fill-rule:nonzero;fill:url(#oh)" d="M36.984 16.023c-.117 0-.23-.003-.347-.011-.188-.012-.371-.07-.371-.07-.188-.06-.375-.16-.375-.16-.184-.102-.34-.282-.34-.282-.16-.184-.25-.395-.25-.395a2.623 2.623 0 0 1-.137-.43 3.152 3.152 0 0 1-.055-.429c-.015-.21-.015-.406-.015-.406 0-.238.015-.477.015-.477.012-.234.063-.468.063-.468.05-.23.129-.43.129-.43.078-.2.23-.371.23-.371.168-.2.375-.309.375-.309.203-.11.41-.176.41-.176.207-.062.387-.07.387-.07.18-.004.3-.012.3-.012h1.806v.676h-1.407c-.187 0-.359.004-.359.004a1.45 1.45 0 0 0-.32.059 1.635 1.635 0 0 0-.278.129.85.85 0 0 0-.226.226c-.102.145-.172.422-.172.422-.07.277-.078.785-.078.785 0 .25.02.43.02.43.019.18.05.316.05.316.031.133.07.211.07.211l.07.137a.93.93 0 0 0 .477.344c.305.086.703.086.703.086h1.524v.675Zm0 0"/><path style="stroke:none;fill-rule:nonzero;fill:url(#oi)" d="M39.46 12.293c0-.14.024-.297.024-.297.028-.152.16-.289.16-.289a.64.64 0 0 1 .266-.148c.14-.032.278-.032.278-.032h2.132c.117 0 .246.008.246.008a.945.945 0 0 1 .254.05c.13.044.246.122.246.122.118.078.22.23.22.23.097.149.163.313.19.489.032.258.032.504.032.504 0 .242-.024.5-.024.5-.027.258-.168.511-.168.511-.043.086-.109.164-.109.164-.062.075-.16.145-.16.145-.098.07-.246.11-.246.11-.145.038-.332.046-.332.046h-.578v.031l1.707 1.586H42.53l-1.476-1.457c-.07-.07-.14-.171-.14-.171-.075-.106-.075-.207-.075-.207v-.102c0-.137.097-.219.097-.219.098-.086.286-.09.286-.09h.847c.11 0 .239-.035.239-.035.125-.031.222-.164.222-.164.032-.055.051-.137.051-.137.02-.082.035-.168.035-.168.012-.082.012-.171.012-.171 0-.09.008-.141.008-.141 0-.27-.047-.414-.047-.414-.043-.14-.117-.211-.117-.211-.102-.102-.235-.113-.235-.113-.136-.016-.238-.02-.238-.02h-1.379c-.07 0-.121.004-.121.004-.05.008-.102.066-.102.066-.07.059-.078.114-.078.114a2.023 2.023 0 0 0-.011.136v3.504h-.848Zm0 0"/><path style="stroke:none;fill-rule:nonzero;fill:url(#oj)" d="M47.625 15.535c-.05.13-.098.227-.098.227-.043.097-.12.172-.12.172a.409.409 0 0 1-.177.105c-.093.023-.25.04-.25.04-.16 0-.261-.048-.261-.048a.61.61 0 0 1-.18-.113.533.533 0 0 1-.117-.176 13.06 13.06 0 0 0-.082-.207l-1.153-3a.394.394 0 0 0-.046-.09c-.032-.05-.063-.058-.063-.058-.05 0-.058.058-.058.058-.004.059-.012.078-.012.078l.02 3.5h-.848v-3.957c0-.218.093-.332.093-.332a.738.738 0 0 1 .22-.18c.124-.066.237-.066.237-.066a1 1 0 0 0 .176-.011c.192 0 .32.043.32.043a.769.769 0 0 1 .22.125c.09.074.148.183.148.183.054.11.101.227.101.227l1.164 3c.032.07.059.117.059.117a.1.1 0 0 0 .062.05c.032 0 .06-.046.06-.046l.062-.121 1.164-3c.07-.192.156-.301.156-.301.082-.11.191-.176.191-.176.11-.062.211-.082.211-.082.106-.02.235-.02.235-.02.312 0 .52.141.52.141.206.14.206.45.206.45v3.96h-.851l.027-3.504c0-.09-.027-.109-.027-.109a.21.21 0 0 0-.051-.027c-.031 0-.063.054-.063.054-.035.051-.047.094-.047.094Zm0 0"/><path style="stroke:none;fill-rule:nonzero;fill:url(#ok)" d="M9.563 12.691H7.34v-.742h2.223Zm0 1.48H7.34v-.741h2.223Zm0 1.477H7.34v-.738h2.223Zm-2.961-2.957h-.743v-.742h.743Zm0 1.48h-.743v-.741h.743Zm0 1.477h-.743v-.738h.743Zm3.328-5.546H5.492c-.199 0-.387.078-.523.218a.724.724 0 0 0-.219.52v5.922c0 .195.078.383.219.52.136.14.324.218.523.218H9.93c.199 0 .386-.078.523-.219a.724.724 0 0 0 .219-.52V10.84a.74.74 0 0 0-.742-.738Zm0 0"/></svg><svg fill="none" viewBox="0 0 390 105" id="ukrposhta" xmlns="http://www.w3.org/2000/svg"><path d="m68.54 59.9-34.53-7.82A19.1 19.1 0 1 1 48.4 49.6l-.01.01a.48.48 0 0 0-.2.4c0 .22.14.4.36.46l15.37 3.47c.36.08.74-.06.96-.35A33.42 33.42 0 0 0 40.22.06L38.8 0A38.2 38.2 0 0 0 6.92 60.13l30.72 43.89c.14.17.34.3.59.3.24 0 .44-.13.58-.3l30.17-43.03c.08-.1.12-.26.12-.4a.7.7 0 0 0-.56-.7z" fill="#FEC524"/><path d="M98.1 20.56c.37 0 .61.12.73.36l10.24 17.49h.5l8.72-17.24c.18-.44.55-.61 1.04-.61h6.25c.56 0 .86.55.61.97l-18.04 31.9c-.19.37-.55.56-1.04.56h-6.13c-.68 0-.74-.43-.5-.92l4.85-8.29-14.46-23.44c-.24-.43-.07-.8.37-.8l6.86.02zm38.88 0c.55 0 .85.3.85.85v13.12l13.81-13.49c.37-.3.92-.48 1.6-.48h7.49c.56 0 .73.48.31.92L146.36 35.2l15.59 17.86c.43.43.19.92-.37.92h-7.36c-.68 0-1.17-.2-1.53-.61L141 39.6l-3.17 2.94v10.58c0 .56-.31.86-.85.86h-5.4c-.56 0-.86-.31-.86-.86V21.41c0-.56.31-.85.86-.85h5.4zm45.3 17.78c3.75 0 5.89-2.33 5.89-5.59 0-3.19-2.14-5.47-5.89-5.47h-8.9v11.04h8.9v.02zm0-17.78c7.42 0 13.01 5.33 13.01 12.2 0 7.12-5.59 12.33-13 12.33h-8.9v8.03c0 .56-.32.86-.86.86h-5.4c-.56 0-.85-.31-.85-.86V21.41c0-.56.3-.85.85-.85h15.15zm46.54 0c.56 0 .86.3.86.85v31.71c0 .56-.31.86-.86.86h-5.4c-.54 0-.85-.31-.85-.86v-25.9h-14.84v25.9c0 .56-.31.86-.85.86h-5.4c-.56 0-.86-.31-.86-.86V21.41c0-.56.31-.85.86-.85h27.34zm14.37 16.74c0 6.07 4.28 10.48 10.43 10.48 6.08 0 10.36-4.42 10.36-10.49 0-6.2-4.3-10.55-10.36-10.55-6.13 0-10.43 4.35-10.43 10.55zm10.43-17.25c9.63 0 17.55 7.42 17.55 17.24 0 9.88-7.92 17.18-17.55 17.18-9.7 0-17.6-7.3-17.6-17.18 0-9.8 7.91-17.24 17.6-17.24zM295 47.3V21.4c0-.56.3-.85.85-.85h5.27c.56 0 .86.3.86.85v25.9h10.48V21.4c0-.56.31-.85.86-.85h5.27c.56 0 .86.3.86.85v31.71c0 .56-.31.86-.86.86h-40.24a.83.83 0 0 1-.86-.86v-31.7c0-.56.31-.85.86-.85h5.27c.56 0 .86.3.86.85v25.9h10.51m58.57-26.75c.55 0 .86.3.86.85v5.03c0 .56-.31.86-.86.86H342.9v25.82c0 .56-.31.86-.86.86h-5.4c-.55 0-.85-.31-.85-.86V27.3h-10.67c-.56 0-.86-.32-.86-.86v-5.03c0-.56.31-.85.86-.85h28.45zm12.14 20.36h11.64l-5.4-13.75h-.67l-5.58 13.75zm14.11 6.44h-16.68l-2.34 5.89c-.19.48-.55.73-1.04.73h-6.08c-.6 0-.8-.31-.6-.86l14.47-32.08c.12-.3.36-.48.8-.48h7c.43 0 .67.19.8.48L389.94 53c.2.49-.12.98-.67.98h-5.84c-.6 0-1.04-.31-1.29-.86l-2.33-5.76z" fill="#282A28"/><path d="M95.6 82.65V68.33h9.4v1.65h-7.52v12.67h-1.89zm14.04-7.18c0 3.58 1.96 5.88 5 5.88 3 0 4.95-2.33 4.95-5.88s-1.96-5.84-5-5.84c-3.37 0-4.95 2.78-4.95 5.84zm11.85-.1c0 4.2-2.32 7.62-6.87 7.62-4.58 0-6.86-3.5-6.86-7.66 0-4.46 2.67-7.34 6.83-7.34 4.45 0 6.9 3.12 6.9 7.38zm14.81 7.28h-1.89V69.98h-5.29l-.28 8.06c-.1 2.88-1.16 4.91-3.33 4.91-.4 0-1-.13-1.37-.28v-1.62c.26.17.8.2 1.04.2 1.03 0 1.77-.56 1.87-4.2l.26-8.72h8.99v14.32zm6.35-7.18c0 3.58 1.95 5.88 4.99 5.88 3 0 4.95-2.33 4.95-5.88s-1.95-5.84-5-5.84c-3.37 0-4.94 2.78-4.94 5.84zm11.84-.1c0 4.2-2.32 7.62-6.87 7.62-4.58 0-6.86-3.5-6.86-7.66 0-4.46 2.67-7.34 6.85-7.34 4.44 0 6.88 3.12 6.88 7.38zm6.31 5.68h3.78c1.91 0 3.78-.12 3.78-2.63 0-2.5-2.2-2.47-4.1-2.47h-3.46v5.1zm0-6.59h3.4c1.62 0 3.54-.12 3.54-2.26 0-2.16-1.67-2.26-3.36-2.26h-3.58v4.52zm4.26-6.13c2.37 0 4.57.95 4.57 3.58A3.2 3.2 0 0 1 167.5 75c1.78.4 2.75 1.72 2.75 3.62 0 3.3-2.7 4.04-5.44 4.04h-5.9V68.33h6.14zm21.09 14.32h-1.9v-6.7h-7.57v6.7h-1.9V68.33h1.9v5.97h7.57v-5.97h1.9v14.32zm10.57-12.5-2.49 6.62h4.91l-2.42-6.62zm6.7 12.5h-2.12l-1.59-4.38h-6.02l-1.63 4.38h-2.02l5.65-14.32h2.12l5.6 14.32zm23.33 0h-1.9V69.98h-7.57v12.67h-1.9V68.33h11.35l.02 14.32zm6.35-7.18c0 3.58 1.96 5.88 5 5.88 3 0 4.95-2.33 4.95-5.88s-1.95-5.84-4.99-5.84c-3.38 0-4.95 2.78-4.95 5.84zm11.85-.1c0 4.2-2.32 7.62-6.86 7.62-4.59 0-6.87-3.5-6.87-7.66 0-4.46 2.68-7.34 6.84-7.34 4.45 0 6.9 3.12 6.9 7.38zm4.45-7.04h1.9V81h6.36V68.33h1.89V81h6.36V68.33h1.9v14.32h-18.4V68.33zm33.94 1.65h-4.82v12.67h-1.88V69.98h-4.82v-1.65h11.52v1.65zm7.32.17-2.46 6.62h4.9l-2.44-6.62zm6.7 12.5h-2.11l-1.59-4.38h-6.02L286 82.65h-2l5.64-14.32h2.13l5.6 14.32zm17.58-8.57 6.29 8.56h-2.42l-5.2-7.28-2.37 2.25v5.03h-1.9V68.33h1.9v7.1l7.27-7.1H321l-6.06 5.75zm12.17 1.12h3.65c1.83 0 3.24-.5 3.24-2.62 0-2.3-1.62-2.62-3.5-2.62h-3.37v5.23h-.02zm4-6.87c2.74 0 4.78 1.14 4.78 4.12 0 3.25-2.09 4.33-4.88 4.33h-3.88v5.87h-1.89V68.33h5.87zm13.15 1.82-2.48 6.62h4.9l-2.42-6.62zm6.7 12.5h-2.12l-1.58-4.38h-6.03l-1.62 4.38h-2.01l5.63-14.32h2.13l5.6 14.32zm7.69-15.55h-1.82v-2.03h1.82v2.04zm-1.87 15.55h-1.89V68.33h1.89v14.32zm-1.93-15.54h-1.8v-2.04h1.8v2.04zm18.52 15.54h-1.89v-6.7h-7.57v6.7h-1.88V68.33h1.88v5.97h7.57v-5.97h1.89v14.32zm5.21-14.32h1.88v12.13h.04l7.03-12.13h2.4v14.32h-1.88V70.5H388l-7.04 12.16h-2.37V68.33" fill="#617171"/></svg></svg>